<?xml version="1.0" standalone="no"?>
<!DOCTYPE svg PUBLIC "-//W3C//DTD SVG 20010904//EN"
 "http://www.w3.org/TR/2001/REC-SVG-20010904/DTD/svg10.dtd">
<svg version="1.0" xmlns="http://www.w3.org/2000/svg"
 width="432.000000pt" height="432.000000pt" viewBox="0 0 432.000000 432.000000"
 preserveAspectRatio="xMidYMid meet">
<metadata>
Created by potrace 1.14, written by Peter Selinger 2001-2017
</metadata>
<g transform="translate(0.000000,432.000000) scale(0.100000,-0.100000)"
fill="#000000" stroke="none">
<path d="M3260 3950 c0 -5 -6 -10 -13 -10 -7 0 -19 -9 -27 -20 -8 -11 -20 -20
-27 -20 -7 0 -13 -4 -13 -10 0 -5 -7 -10 -16 -10 -19 0 -181 -86 -202 -107 -7
-7 -17 -13 -22 -13 -5 0 -20 -11 -34 -25 -14 -14 -34 -25 -46 -25 -11 0 -20
-4 -20 -10 0 -5 -11 -10 -25 -10 -14 0 -25 -4 -25 -10 0 -5 -7 -10 -15 -10 -8
0 -15 -4 -15 -10 0 -5 -9 -10 -20 -10 -11 0 -20 -4 -20 -10 0 -5 -9 -10 -20
-10 -11 0 -20 -4 -20 -10 0 -5 -6 -10 -13 -10 -7 0 -26 -13 -42 -30 -16 -16
-39 -30 -52 -30 -13 0 -23 -4 -23 -10 0 -5 -7 -10 -16 -10 -8 0 -29 -14 -47
-30 -18 -17 -44 -33 -59 -37 -16 -3 -28 -9 -28 -14 0 -4 -9 -11 -20 -14 -11
-4 -32 -17 -45 -31 -13 -13 -31 -24 -40 -24 -8 0 -15 -4 -15 -10 0 -5 -9 -10
-19 -10 -11 0 -23 -9 -26 -20 -3 -11 -15 -20 -26 -20 -10 0 -19 -4 -19 -10 0
-5 -9 -10 -20 -10 -11 0 -20 -4 -20 -10 0 -5 -7 -10 -15 -10 -9 0 -27 -11 -40
-24 -13 -14 -33 -27 -44 -31 -11 -3 -23 -15 -26 -25 -4 -11 -27 -32 -53 -47
-26 -15 -56 -35 -66 -45 -11 -10 -24 -18 -29 -18 -5 0 -22 -13 -37 -30 -15
-16 -31 -30 -35 -30 -4 0 -20 -13 -35 -30 -15 -16 -33 -30 -39 -30 -7 0 -27
-16 -47 -35 -19 -19 -54 -45 -77 -56 -23 -12 -49 -30 -58 -40 -9 -11 -22 -19
-28 -19 -11 0 -44 -28 -131 -110 -30 -29 -35 -38 -24 -48 16 -15 50 -16 67 -2
7 6 37 27 67 47 30 20 57 40 58 45 2 4 11 8 21 8 9 0 23 9 31 20 8 11 20 20
27 20 7 0 13 5 13 10 0 6 7 10 15 10 8 0 15 5 15 10 0 6 5 10 10 10 6 0 31 20
56 45 24 25 49 45 54 45 5 0 15 6 22 13 7 7 31 26 53 42 22 16 47 38 56 47 9
10 22 18 28 18 7 0 30 18 51 40 21 22 43 40 49 40 6 0 11 5 11 10 0 6 7 10 15
10 8 0 15 5 15 10 0 6 6 10 13 10 7 0 19 9 27 20 8 11 20 20 27 20 7 0 27 13
43 28 16 16 48 37 70 47 22 10 40 21 40 25 0 4 14 13 30 20 17 7 30 16 30 20
0 4 14 13 30 20 17 7 30 16 30 21 0 5 9 9 20 9 11 0 20 5 20 10 0 6 9 10 20
10 11 0 20 5 20 10 0 6 7 10 15 10 8 0 15 5 15 10 0 6 8 10 18 10 10 0 24 9
32 20 8 11 22 20 32 20 10 0 18 4 18 8 0 5 16 14 35 22 19 8 35 17 35 20 0 3
27 19 60 35 33 16 60 32 60 37 0 4 6 8 14 8 19 0 96 42 96 52 0 4 9 8 20 8 11
0 20 5 20 10 0 6 9 10 20 10 11 0 20 5 20 10 0 6 11 10 25 10 14 0 25 5 25 10
0 6 9 10 20 10 11 0 20 5 20 10 0 6 9 10 20 10 11 0 20 5 20 10 0 6 9 10 20
10 11 0 20 4 20 8 0 9 76 52 92 52 19 0 38 29 38 59 0 24 -4 31 -20 31 -11 0
-20 5 -20 10 0 6 -7 10 -15 10 -8 0 -15 -4 -15 -10z"/>
<path d="M3402 3774 c-19 -19 -39 -34 -43 -34 -4 0 -20 -11 -34 -25 -14 -14
-25 -22 -25 -18 0 4 -5 0 -11 -9 -5 -10 -21 -18 -34 -18 -14 0 -25 -4 -25 -10
0 -5 -6 -10 -13 -10 -7 0 -19 -9 -27 -20 -8 -11 -21 -20 -30 -20 -9 0 -22 -9
-30 -20 -8 -12 -26 -20 -42 -20 -15 0 -28 -4 -28 -10 0 -5 -8 -10 -17 -10 -10
0 -29 -9 -43 -20 -14 -11 -31 -20 -37 -20 -7 0 -13 -4 -13 -10 0 -5 -7 -10
-15 -10 -16 0 -76 -27 -85 -39 -10 -13 -50 -31 -68 -31 -10 0 -24 -9 -32 -20
-8 -11 -22 -20 -32 -20 -10 0 -18 -4 -18 -10 0 -5 -9 -10 -20 -10 -11 0 -20
-4 -20 -10 0 -5 -9 -10 -20 -10 -11 0 -20 -4 -20 -10 0 -5 -7 -10 -15 -10 -8
0 -15 -4 -15 -10 0 -5 -8 -10 -18 -10 -10 0 -24 -9 -32 -20 -8 -11 -22 -20
-32 -20 -10 0 -18 -4 -18 -10 0 -5 -6 -10 -12 -10 -7 0 -32 -18 -56 -40 -23
-21 -51 -42 -62 -45 -11 -4 -20 -11 -20 -16 0 -5 -8 -9 -18 -9 -10 0 -24 -9
-32 -20 -8 -11 -22 -20 -32 -20 -10 0 -18 -4 -18 -8 0 -18 -38 -52 -59 -52
-11 0 -40 -19 -63 -41 -24 -23 -63 -55 -88 -72 -25 -17 -47 -34 -50 -37 -3 -4
-21 -15 -40 -25 -19 -10 -51 -35 -71 -56 -21 -22 -42 -39 -48 -39 -6 0 -11 -4
-11 -10 0 -5 -7 -10 -15 -10 -9 0 -27 -11 -41 -25 -14 -14 -29 -25 -33 -25 -4
0 -21 -11 -36 -24 -15 -13 -40 -30 -54 -38 -14 -7 -33 -20 -41 -29 -8 -9 -44
-31 -80 -50 l-65 -34 -185 -3 c-137 -3 -213 1 -294 13 -97 15 -110 15 -124 2
-12 -13 -13 -21 -3 -44 17 -42 78 -53 313 -54 128 -1 198 -5 198 -11 0 -16 41
-48 60 -48 9 0 36 13 61 29 53 33 105 38 514 47 138 2 280 9 317 14 37 6 215
10 397 10 209 0 332 4 336 10 8 13 82 13 87 0 2 -7 15 -6 37 2 27 10 35 10 38
1 4 -10 39 -13 130 -13 99 0 128 -3 140 -15 14 -14 12 -19 -22 -48 -20 -18
-55 -49 -77 -69 -22 -21 -43 -38 -48 -38 -5 0 -16 -8 -26 -17 -17 -17 -71 -18
-928 -14 -1710 8 -1876 8 -1885 -8 -13 -20 8 -61 31 -61 10 0 18 -4 18 -10 0
-7 238 -10 695 -10 457 0 695 -3 695 -10 0 -7 207 -10 600 -10 330 0 600 -3
600 -6 0 -10 -28 -34 -40 -34 -6 0 -22 -10 -35 -22 -60 -58 -86 -78 -100 -78
-8 0 -15 -4 -15 -9 0 -5 -13 -14 -30 -21 -16 -7 -30 -16 -30 -20 0 -4 -16 -15
-35 -26 -19 -10 -35 -22 -35 -26 0 -3 -9 -10 -20 -13 -11 -4 -32 -17 -45 -31
-13 -13 -31 -24 -40 -24 -8 0 -15 -4 -15 -10 0 -5 -6 -10 -13 -10 -7 0 -19 -9
-27 -20 -8 -11 -20 -20 -27 -20 -7 0 -13 -4 -13 -10 0 -5 -7 -10 -15 -10 -8 0
-15 -4 -15 -10 0 -5 -8 -10 -18 -10 -10 0 -24 -9 -32 -20 -8 -11 -22 -20 -32
-20 -10 0 -18 -4 -18 -8 0 -5 -24 -22 -52 -37 -29 -16 -60 -36 -68 -46 -9 -9
-37 -27 -63 -39 -26 -12 -47 -26 -47 -31 0 -5 -6 -9 -13 -9 -7 0 -19 -9 -27
-20 -8 -11 -21 -20 -30 -20 -9 0 -22 -9 -30 -20 -8 -11 -21 -20 -30 -20 -9 0
-22 -9 -30 -20 -8 -11 -20 -20 -27 -20 -7 0 -13 -4 -13 -10 0 -5 -9 -10 -20
-10 -11 0 -20 -4 -20 -10 0 -5 -7 -10 -15 -10 -9 0 -31 -15 -49 -34 -19 -18
-48 -40 -65 -47 -17 -8 -31 -17 -31 -21 0 -5 -7 -8 -15 -8 -8 0 -15 -4 -15
-10 0 -5 -6 -10 -14 -10 -8 0 -37 -22 -65 -50 -28 -27 -56 -50 -61 -50 -6 0
-10 -4 -10 -10 0 -5 -8 -10 -18 -10 -10 0 -24 -9 -32 -20 -8 -11 -20 -20 -28
-20 -14 0 -38 -21 -104 -87 -23 -24 -46 -43 -52 -43 -7 0 -18 -9 -26 -20 -8
-11 -21 -20 -30 -20 -9 0 -22 -9 -30 -20 -8 -11 -21 -20 -28 -20 -7 0 -31 -18
-52 -40 -21 -22 -41 -40 -45 -40 -3 0 -17 -11 -30 -25 -18 -18 -25 -35 -25
-65 l0 -40 40 0 c22 0 40 4 40 8 0 15 195 202 210 202 5 0 10 5 10 10 0 6 6
10 13 10 7 0 19 9 27 20 8 11 18 20 23 20 5 0 22 14 37 30 15 17 33 30 40 30
7 0 25 14 40 30 15 17 33 30 39 30 6 0 11 4 11 8 0 5 11 14 25 20 27 12 40 22
80 60 13 12 28 22 33 22 5 0 23 14 40 30 18 17 35 30 40 30 4 0 14 9 22 20 8
11 21 20 30 20 9 0 22 9 30 20 8 11 21 20 30 20 9 0 22 9 30 20 8 11 20 20 27
20 7 0 13 4 13 9 0 5 14 14 30 21 17 7 30 16 30 21 0 4 9 11 20 14 11 3 26 12
32 18 21 20 97 67 108 67 5 0 10 4 10 9 0 5 14 14 30 21 17 7 30 16 30 21 0 5
7 9 16 9 9 0 28 13 42 28 15 16 42 35 60 43 17 7 32 17 32 21 0 5 7 8 15 8 9
0 27 11 41 25 14 14 29 25 33 25 4 0 21 11 37 25 16 14 37 28 47 31 9 3 17 9
17 13 0 5 14 14 30 21 17 7 30 16 30 21 0 5 8 9 18 9 10 0 24 9 32 20 8 11 20
20 27 20 7 0 13 5 13 10 0 6 8 10 18 10 10 0 24 9 32 20 8 11 20 20 28 20 14
0 32 13 60 43 9 9 20 17 24 17 5 0 17 8 27 18 34 30 47 40 82 57 19 10 41 25
49 34 8 9 27 22 43 30 15 8 27 18 27 23 0 4 11 8 25 8 14 0 25 -2 25 -5 0 -7
-88 -95 -95 -95 -3 0 -34 -28 -69 -62 -68 -67 -157 -148 -162 -148 -4 0 -96
-86 -190 -177 -24 -24 -44 -40 -44 -36 0 3 -8 -4 -19 -15 -10 -12 -23 -22 -29
-22 -6 0 -34 -23 -61 -50 -28 -28 -52 -50 -55 -50 -3 0 -33 -27 -67 -60 -33
-33 -65 -60 -70 -60 -4 0 -22 -14 -39 -30 -17 -17 -35 -30 -40 -30 -5 0 -34
-25 -65 -55 -30 -30 -59 -55 -65 -55 -5 0 -10 -4 -10 -10 0 -5 -7 -10 -15 -10
-8 0 -15 -4 -15 -10 0 -5 -5 -10 -10 -10 -11 0 -80 -65 -80 -75 0 -10 -23 -31
-50 -45 -30 -15 -35 -20 -122 -105 -37 -36 -70 -65 -74 -65 -3 0 -19 -13 -34
-30 -15 -16 -35 -30 -43 -30 -9 0 -17 -4 -19 -9 -1 -5 -9 -11 -17 -13 -8 -2
-33 -20 -55 -40 -23 -21 -45 -38 -49 -38 -5 0 -33 -25 -62 -55 -30 -30 -59
-55 -64 -55 -6 0 -16 -9 -23 -20 -7 -11 -18 -20 -25 -20 -7 0 -13 -4 -13 -10
0 -5 -5 -10 -10 -10 -6 0 -39 -28 -74 -62 -35 -35 -78 -76 -95 -91 -18 -17
-31 -39 -31 -52 0 -25 34 -65 55 -65 15 0 85 65 85 79 0 12 44 61 55 61 3 0
26 19 50 42 25 24 65 62 90 86 24 23 48 42 52 42 9 0 77 57 137 115 23 23 61
55 86 72 25 17 64 50 88 72 23 23 42 38 42 35 0 -3 13 8 29 25 16 17 32 31 36
31 4 0 20 14 35 30 15 17 31 30 36 30 4 0 14 7 23 15 44 41 103 94 147 130 26
22 71 64 101 93 29 28 56 52 61 52 4 0 14 9 22 20 8 11 20 20 27 20 7 0 13 5
13 10 0 6 5 10 10 10 6 0 26 15 44 33 18 17 46 41 62 52 15 11 44 35 63 53 19
17 39 32 43 32 5 0 32 24 62 53 51 50 103 97 210 189 27 24 64 58 83 76 18 17
37 32 43 32 6 0 35 24 64 53 30 28 75 70 100 92 26 22 64 56 86 75 112 101 82
90 248 90 102 0 152 -4 160 -12 9 -9 12 -9 12 0 0 7 7 12 15 12 8 0 15 -4 15
-10 0 -5 7 -10 15 -10 8 0 15 5 15 10 0 6 7 10 15 10 19 0 21 75 3 87 -7 4
-74 8 -148 8 -124 0 -135 2 -138 19 -2 10 0 21 5 25 5 3 22 34 38 69 16 34 32
62 37 62 4 0 8 15 8 33 0 58 -22 68 -162 75 -255 12 -872 7 -1223 -10 -398
-19 -615 -22 -615 -10 0 11 41 47 72 63 12 7 30 20 39 31 9 10 20 18 25 18 5
0 17 8 25 18 28 31 79 72 90 72 6 0 28 18 49 40 21 22 43 40 49 40 10 0 36 18
66 48 8 6 18 12 24 12 6 0 34 23 62 50 28 28 57 50 63 50 7 0 23 11 36 25 13
14 28 25 35 25 6 0 17 9 25 20 8 11 21 20 30 20 9 0 22 9 30 20 8 11 22 20 32
20 10 0 18 5 18 10 0 6 5 10 11 10 6 0 24 14 39 30 15 17 35 30 44 30 9 0 16
5 16 10 0 6 5 10 10 10 6 0 38 17 73 38 34 20 82 46 107 57 25 10 57 27 72 37
14 10 33 18 42 18 9 0 16 5 16 10 0 6 9 10 20 10 11 0 20 5 20 10 0 6 9 10 20
10 11 0 20 5 20 10 0 6 9 10 20 10 11 0 20 5 20 10 0 6 7 10 15 10 8 0 15 5
15 10 0 6 11 10 25 10 14 0 25 5 25 10 0 6 7 10 15 10 8 0 15 5 15 10 0 6 9
10 20 10 11 0 20 5 20 10 0 6 9 10 20 10 11 0 20 4 20 9 0 5 15 14 33 22 17 7
34 15 37 19 3 3 22 14 43 25 20 11 37 22 37 26 0 4 14 12 30 19 17 7 30 16 30
21 0 5 7 9 15 9 8 0 15 5 15 10 0 6 7 10 16 10 25 0 53 37 47 63 -15 59 -54
67 -101 21z"/>
</g>
</svg>
